<svg width="86" height="86" viewBox="0 0 86 86" fill="none" xmlns="http://www.w3.org/2000/svg">
<path d="M51.2305 43C51.2305 47.5457 47.5457 51.2305 43 51.2305C38.4543 51.2305 34.7695 47.5457 34.7695 43C34.7695 38.4543 38.4543 34.7695 43 34.7695C47.5457 34.7695 51.2305 38.4543 51.2305 43Z" fill="#F9B300"/>
<path d="M62.2482 28.4379C61.8525 27.3658 61.2213 26.3954 60.4012 25.5988C59.6046 24.7787 58.6349 24.1475 57.5621 23.7518C56.6921 23.4139 55.3851 23.0117 52.9777 22.9021C50.3736 22.7834 49.5928 22.7578 43 22.7578C36.4066 22.7578 35.6258 22.7827 33.0223 22.9015C30.6149 23.0117 29.3073 23.4139 28.4379 23.7518C27.3651 24.1475 26.3947 24.7787 25.5988 25.5988C24.7787 26.3954 24.1475 27.3651 23.7512 28.4379C23.4133 29.3079 23.0111 30.6156 22.9015 33.0229C22.7827 35.6264 22.7571 36.4072 22.7571 43.0007C22.7571 49.5934 22.7827 50.3742 22.9015 52.9784C23.0111 55.3857 23.4133 56.6927 23.7512 57.5628C24.1475 58.6355 24.778 59.6053 25.5982 60.4018C26.3947 61.222 27.3645 61.8532 28.4372 62.2488C29.3073 62.5874 30.6149 62.9896 33.0223 63.0992C35.6258 63.2179 36.4059 63.2429 42.9993 63.2429C49.5934 63.2429 50.3742 63.2179 52.9771 63.0992C55.3844 62.9896 56.6921 62.5874 57.5621 62.2488C59.7155 61.4182 61.4175 59.7162 62.2482 57.5628C62.5861 56.6927 62.9883 55.3857 63.0985 52.9784C63.2173 50.3742 63.2422 49.5934 63.2422 43.0007C63.2422 36.4072 63.2173 35.6264 63.0985 33.0229C62.9889 30.6156 62.5867 29.3079 62.2482 28.4379ZM43 55.679C35.9971 55.679 30.3203 50.0029 30.3203 43C30.3203 35.9971 35.9971 30.321 43 30.321C50.0022 30.321 55.679 35.9971 55.679 43C55.679 50.0029 50.0022 55.679 43 55.679ZM56.1803 32.7828C54.5439 32.7828 53.2172 31.4561 53.2172 29.8197C53.2172 28.1833 54.5439 26.8566 56.1803 26.8566C57.8167 26.8566 59.1434 28.1833 59.1434 29.8197C59.1427 31.4561 57.8167 32.7828 56.1803 32.7828Z" fill="#F9B300"/>
<path d="M43 0C19.2554 0 0 19.2554 0 43C0 66.7446 19.2554 86 43 86C66.7446 86 86 66.7446 86 43C86 19.2554 66.7446 0 43 0ZM67.5425 53.1798C67.423 55.8083 67.0051 57.6028 66.3949 59.1736C65.1122 62.4903 62.4903 65.1122 59.1736 66.3949C57.6034 67.0051 55.8083 67.4224 53.1805 67.5425C50.5474 67.6625 49.7063 67.6914 43.0007 67.6914C36.2944 67.6914 35.4539 67.6625 32.8202 67.5425C30.1924 67.4224 28.3972 67.0051 26.8271 66.3949C25.1789 65.7749 23.6869 64.8031 22.4534 63.5466C21.1975 62.3138 20.2258 60.8211 19.6058 59.1736C18.9956 57.6034 18.5776 55.8083 18.4582 53.1805C18.3368 50.5468 18.3086 49.7056 18.3086 43C18.3086 36.2944 18.3368 35.4532 18.4575 32.8202C18.577 30.1917 18.9942 28.3972 19.6044 26.8264C20.2245 25.1789 21.1969 23.6862 22.4534 22.4534C23.6862 21.1969 25.1789 20.2251 26.8264 19.6051C28.3972 18.9949 30.1917 18.5776 32.8202 18.4575C35.4532 18.3375 36.2944 18.3086 43 18.3086C49.7056 18.3086 50.5468 18.3375 53.1798 18.4582C55.8083 18.5776 57.6028 18.9949 59.1736 19.6044C60.8211 20.2245 62.3138 21.1969 63.5473 22.4534C64.8031 23.6869 65.7755 25.1789 66.3949 26.8264C67.0058 28.3972 67.423 30.1917 67.5431 32.8202C67.6632 35.4532 67.6914 36.2944 67.6914 43C67.6914 49.7056 67.6632 50.5468 67.5425 53.1798Z" fill="#F9B300"/>
</svg>
