<svg width="70" height="70" viewBox="0 0 70 70" fill="none" xmlns="http://www.w3.org/2000/svg">
<circle cx="35" cy="35" r="35" fill="#F9B300"/>
<path d="M33.8087 31.915C32.6887 33.0117 31.2887 33.56 29.6087 33.56C27.9287 33.56 26.517 33 25.3737 31.88C24.2537 30.76 23.6937 29.395 23.6937 27.785C23.6937 26.175 24.2537 24.81 25.3737 23.69C26.517 22.57 27.9287 22.01 29.6087 22.01C31.2887 22.01 32.6887 22.57 33.8087 23.69C34.9287 24.7867 35.4887 26.1517 35.4887 27.785C35.4887 29.4183 34.9287 30.795 33.8087 31.915ZM26.1787 43.29L42.1387 25.545L44.2737 26.735L28.2787 44.515L26.1787 43.29ZM27.9987 29.395C28.4187 29.815 28.9437 30.025 29.5737 30.025C30.2037 30.025 30.7287 29.815 31.1487 29.395C31.5687 28.9517 31.7787 28.415 31.7787 27.785C31.7787 27.155 31.5687 26.63 31.1487 26.21C30.7287 25.79 30.2037 25.58 29.5737 25.58C28.9437 25.58 28.4187 25.79 27.9987 26.21C27.602 26.63 27.4037 27.155 27.4037 27.785C27.4037 28.415 27.602 28.9517 27.9987 29.395ZM45.6387 45.74C44.5187 46.86 43.1187 47.42 41.4387 47.42C39.7587 47.42 38.3587 46.86 37.2387 45.74C36.1187 44.62 35.5587 43.255 35.5587 41.645C35.5587 40.035 36.1187 38.67 37.2387 37.55C38.3587 36.43 39.7587 35.87 41.4387 35.87C43.1187 35.87 44.5187 36.43 45.6387 37.55C46.7587 38.67 47.3187 40.035 47.3187 41.645C47.3187 43.255 46.7587 44.62 45.6387 45.74ZM39.8637 43.255C40.2837 43.675 40.8087 43.885 41.4387 43.885C42.0687 43.885 42.582 43.6633 42.9787 43.22C43.3987 42.7767 43.6087 42.2517 43.6087 41.645C43.6087 41.015 43.3987 40.49 42.9787 40.07C42.582 39.6267 42.0687 39.405 41.4387 39.405C40.8087 39.405 40.2837 39.6267 39.8637 40.07C39.467 40.49 39.2687 41.015 39.2687 41.645C39.2687 42.275 39.467 42.8117 39.8637 43.255Z" fill="black"/>
</svg>
