<svg width="37" height="42" viewBox="0 0 37 42" fill="none" xmlns="http://www.w3.org/2000/svg">
<path d="M36.2977 11.1494L33.5108 7.5527C33.1376 7.07109 32.5763 6.79489 31.9706 6.79489H29.6692C29.452 6.39056 29.0278 6.11535 28.5411 6.11535H25.9479L18.3798 3.56852C18.2017 3.50856 18.0197 3.46467 17.8351 3.43621L18.2091 1.54867C18.2847 1.16681 18.1879 0.775113 17.9433 0.473895C17.6989 0.172758 17.3374 0 16.9516 0H14.5554C14.1697 0 13.8083 0.172676 13.5637 0.473812C13.3191 0.774949 13.2222 1.16665 13.2979 1.54859L13.6718 3.43621C13.4874 3.46467 13.3053 3.50856 13.1273 3.56852L5.55909 6.11543H2.96586C2.35355 6.11543 1.76878 6.41066 1.40153 6.90514L0.190064 8.53593C-0.0263087 8.82714 -0.0605154 9.21039 0.100688 9.53597C0.261972 9.86163 0.586166 10.0639 0.94676 10.0639H1.95249C1.97264 10.0639 1.99174 10.0737 2.00376 10.0901L6.16669 15.7996L6.51534 18.6154C6.55393 18.9267 6.81637 19.1545 7.11928 19.1545C7.14455 19.1545 7.16998 19.1528 7.19565 19.1496C7.52952 19.1075 7.76645 18.8 7.72476 18.4629L7.36222 15.5347L7.59622 7.34598H10.5044L12.3094 21.9245C12.3311 22.0995 12.3762 22.2664 12.4395 22.4234H8.27134C8.23925 22.4234 8.21211 22.3992 8.20821 22.3671L8.02954 20.9239C7.98778 20.5866 7.68381 20.3474 7.34922 20.3897C7.01536 20.4319 6.77843 20.7393 6.82011 21.0765L6.99878 22.5198C7.0789 23.1663 7.62604 23.6539 8.27134 23.6539H8.41386V27.1798H8.2568C7.61686 27.1798 7.08353 27.6435 6.98854 28.2825L5.28722 39.7329C5.20264 40.3019 5.36741 40.8781 5.73922 41.3141C6.11103 41.75 6.65119 42 7.22092 42H8.70831C9.04494 42 9.3177 41.7245 9.3177 41.3848C9.3177 41.045 9.04494 40.7695 8.70831 40.7695H7.22092C7.00309 40.7695 6.80492 40.6777 6.66273 40.5111C6.52062 40.3445 6.46017 40.133 6.49242 39.9154L6.58651 39.2821H24.9204L25.0144 39.9154C25.0467 40.1329 24.9863 40.3444 24.8441 40.5111C24.7019 40.6777 24.5037 40.7695 24.2859 40.7695H11.1459C10.8093 40.7695 10.5366 41.045 10.5366 41.3848C10.5366 41.7245 10.8093 42 11.1459 42H24.2859C24.8558 42 25.3958 41.75 25.7676 41.3141C26.1395 40.8782 26.3042 40.3019 26.2198 39.733L24.5185 28.2824C24.4235 27.6435 23.8902 27.1798 23.2502 27.1798H23.0932V23.6537H23.2357C23.881 23.6537 24.4281 23.1662 24.5082 22.5195L25.6298 13.4613H27.6055C27.8587 13.4613 28.106 13.4126 28.3406 13.3165L29.4764 12.8513C30.3597 12.4897 31.3711 12.7779 31.9363 13.5526C32.3038 14.0564 32.4384 14.6959 32.3054 15.3071L30.3237 24.4113C30.3172 24.441 30.2917 24.4618 30.2615 24.4618H28.5411C27.834 24.4618 27.2587 25.0426 27.2587 25.7565V27.1154C27.2587 27.8293 27.834 28.4102 28.5411 28.4102H31.9476C32.8562 28.4102 33.6382 27.7872 33.8494 26.8951L36.9084 13.9783C37.1436 12.9848 36.921 11.9538 36.2977 11.1494ZM28.6048 7.41021V8.98513C28.6048 9.34754 28.3481 9.65573 27.9943 9.71783L26.0511 10.0591L26.3869 7.3459H28.5411C28.5762 7.3459 28.6048 7.37469 28.6048 7.41021ZM14.5062 1.25401C14.5252 1.23047 14.5479 1.23047 14.5554 1.23047H16.9516C16.9591 1.23047 16.9818 1.23047 17.0009 1.25401C17.02 1.27747 17.0156 1.29995 17.0141 1.30733L16.6 3.39741H14.907L14.4929 1.30733C14.4915 1.30003 14.4871 1.27755 14.5062 1.25401ZM1.95249 8.83337H1.49253L2.37662 7.64334C2.51491 7.45705 2.73519 7.3459 2.96586 7.3459H6.3768L6.1935 13.7608L2.98536 9.36067C2.74469 9.03049 2.35859 8.83337 1.95249 8.83337ZM13.5128 4.73583C13.7254 4.66421 13.947 4.62796 14.1713 4.62796H17.3358C17.5601 4.62796 17.7816 4.66422 17.9943 4.73591L22.0938 6.11543H9.41325L13.5128 4.73583ZM13.5187 21.7717L11.7326 7.3459H19.7744L17.9884 21.7717C17.9424 22.1431 17.628 22.4232 17.2574 22.4232H14.2497C13.8789 22.4232 13.5646 22.1432 13.5187 21.7717ZM8.19375 28.4648C8.19846 28.4332 8.22495 28.4101 8.25672 28.4101H12.4588C12.4006 28.5529 12.3569 28.7033 12.3335 28.861L10.968 38.0516H6.76941L8.19375 28.4648ZM18.0149 29.0436L19.3533 38.0515H12.2005L13.5389 29.0435C13.5925 28.6825 13.9057 28.4101 14.2674 28.4101H17.2865C17.6481 28.4101 17.9613 28.6825 18.0149 29.0436ZM23.3133 28.4648L24.7376 38.0516H20.5857L19.2202 28.8611C19.1968 28.7035 19.153 28.5529 19.0948 28.4102H23.2502C23.2821 28.4101 23.3086 28.4332 23.3133 28.4648ZM21.8745 27.1797H9.63255V23.6537H21.8745V27.1797ZM23.2989 22.3669C23.2949 22.399 23.2678 22.4232 23.2358 22.4232H19.0676C19.131 22.2663 19.1761 22.0994 19.1978 21.9243L21.0026 7.3459H25.1587L23.2989 22.3669ZM35.7231 13.6921L32.6641 26.6089C32.5846 26.945 32.29 27.1797 31.9477 27.1797H28.5411C28.506 27.1797 28.4775 27.1508 28.4775 27.1153V25.7564C28.4775 25.721 28.5061 25.6922 28.5411 25.6922H30.2615C30.8591 25.6922 31.3859 25.2646 31.5141 24.6753L33.4957 15.5713C33.7041 14.6138 33.4934 13.612 32.9175 12.8229C32.0215 11.595 30.4178 11.1377 29.0182 11.7112L27.8824 12.1764C27.794 12.2126 27.7009 12.2309 27.6055 12.2309H25.7822L25.893 11.3358L28.2032 10.9302C29.1421 10.7653 29.8235 9.94736 29.8235 8.98521V8.02544H31.9706C32.1988 8.02544 32.4102 8.12954 32.5508 8.31091L35.3378 11.9076C35.731 12.4149 35.8714 13.0654 35.7231 13.6921Z" fill="black"/>
</svg>
