<svg width="160" height="24" viewBox="0 0 160 24" fill="none" xmlns="http://www.w3.org/2000/svg">
<path d="M1.04723 20.2866C-1.25785 16.2226 0.3107 9.84864 5.07929 5.0797C10.4945 -0.333678 17.9822 -1.62425 21.8052 2.1972C21.8097 2.2022 21.8134 2.20787 21.8196 2.21295C21.0545 4.4385 18.618 9.17387 11.3145 11.734C4.62422 14.0805 2.04343 17.8112 1.04723 20.2866ZM22.8805 3.5884C22.301 4.93992 21.2924 6.70615 19.5547 8.44339C17.808 10.1905 15.3254 11.9064 11.8089 13.1396C4.67193 15.6418 2.67784 19.738 2.12147 21.723C2.14775 21.7495 2.17035 21.777 2.1959 21.8027C6.0185 25.6243 13.5065 24.3338 18.9214 18.9195C23.7396 14.1022 25.2891 7.64562 22.8805 3.5884Z" fill="#505050"/>
<path d="M35.0472 20.2866C32.7422 16.2226 34.3107 9.84864 39.0793 5.0797C44.4945 -0.333678 51.9822 -1.62425 55.8052 2.1972C55.8097 2.2022 55.8134 2.20787 55.8196 2.21295C55.0545 4.4385 52.618 9.17387 45.3145 11.734C38.6242 14.0805 36.0434 17.8112 35.0472 20.2866ZM56.8805 3.5884C56.301 4.93992 55.2924 6.70615 53.5547 8.44339C51.808 10.1905 49.3254 11.9064 45.8089 13.1396C38.6719 15.6418 36.6778 19.738 36.1215 21.723C36.1478 21.7495 36.1704 21.777 36.1959 21.8027C40.0185 25.6243 47.5065 24.3338 52.9214 18.9195C57.7396 14.1022 59.2891 7.64562 56.8805 3.5884Z" fill="#505050"/>
<path d="M69.0472 20.2866C66.7422 16.2226 68.3107 9.84864 73.0793 5.0797C78.4945 -0.333678 85.9822 -1.62425 89.8052 2.1972C89.8097 2.2022 89.8134 2.20787 89.8196 2.21295C89.0545 4.4385 86.618 9.17387 79.3145 11.734C72.6242 14.0805 70.0434 17.8112 69.0472 20.2866ZM90.8805 3.5884C90.301 4.93992 89.2924 6.70615 87.5547 8.44339C85.808 10.1905 83.3254 11.9064 79.8089 13.1396C72.6719 15.6418 70.6778 19.738 70.1215 21.723C70.1478 21.7495 70.1704 21.777 70.1959 21.8027C74.0185 25.6243 81.5065 24.3338 86.9214 18.9195C91.7396 14.1022 93.2891 7.64562 90.8805 3.5884Z" fill="#505050"/>
<path d="M103.047 20.2866C100.742 16.2226 102.311 9.84864 107.079 5.0797C112.495 -0.333678 119.982 -1.62425 123.805 2.1972C123.81 2.2022 123.813 2.20787 123.82 2.21295C123.054 4.4385 120.618 9.17387 113.315 11.734C106.624 14.0805 104.043 17.8112 103.047 20.2866ZM124.88 3.5884C124.301 4.93992 123.292 6.70615 121.555 8.44339C119.808 10.1905 117.325 11.9064 113.809 13.1396C106.672 15.6418 104.678 19.738 104.121 21.723C104.148 21.7495 104.17 21.777 104.196 21.8027C108.019 25.6243 115.507 24.3338 120.921 18.9195C125.74 14.1022 127.289 7.64562 124.88 3.5884Z" fill="#505050"/>
<path d="M137.047 20.2866C134.742 16.2226 136.311 9.84864 141.079 5.0797C146.495 -0.333678 153.982 -1.62425 157.805 2.1972C157.81 2.2022 157.813 2.20787 157.82 2.21295C157.054 4.4385 154.618 9.17387 147.315 11.734C140.624 14.0805 138.043 17.8112 137.047 20.2866ZM158.88 3.5884C158.301 4.93992 157.292 6.70615 155.555 8.44339C153.808 10.1905 151.325 11.9064 147.809 13.1396C140.672 15.6418 138.678 19.738 138.121 21.723C138.148 21.7495 138.17 21.777 138.196 21.8027C142.019 25.6243 149.507 24.3338 154.921 18.9195C159.74 14.1022 161.289 7.64562 158.88 3.5884Z" fill="#505050"/>
</svg>
